<?xml version="1.0" encoding="utf-8"?>
<!-- Generator: Adobe Illustrator 16.0.0, SVG Export Plug-In . SVG Version: 6.00 Build 0)  -->
<!DOCTYPE svg PUBLIC "-//W3C//DTD SVG 1.1//EN" "http://www.w3.org/Graphics/SVG/1.1/DTD/svg11.dtd">
<svg version="1.1" id="icons" xmlns="http://www.w3.org/2000/svg" xmlns:xlink="http://www.w3.org/1999/xlink" x="0px" y="0px"
	 width="23.021px" height="32.83px" viewBox="0 0 23.021 32.83" enable-background="new 0 0 23.021 32.83" xml:space="preserve">
<g>
	<path fill="#FFFFFF" d="M6.635,7.17c0-2.687,2.186-4.873,4.873-4.873c2.687,0,4.873,2.186,4.873,4.873v0.476h1.946V7.17
		c0-3.76-3.06-6.819-6.819-6.819S4.689,3.41,4.689,7.17v0.476h1.946V7.17z"/>
	<path fill="#FFFFFF" d="M21.394,9.632H1.622C0.728,9.632,0,10.359,0,11.253v19.955c0,0.895,0.728,1.622,1.622,1.622h19.771
		c0.895,0,1.622-0.728,1.622-1.622V11.253C23.016,10.359,22.288,9.632,21.394,9.632z M21.07,30.884H1.946V11.577H21.07V30.884z"/>
</g>
</svg>
